<?xml version="1.0" encoding="utf-8"?>
<!-- Generator: Adobe Illustrator 24.1.0, SVG Export Plug-In . SVG Version: 6.00 Build 0)  -->
<svg version="1.1" id="Layer_1" xmlns="http://www.w3.org/2000/svg" xmlns:xlink="http://www.w3.org/1999/xlink" x="0px" y="0px"
	 viewBox="0 0 24 24" style="enable-background:new 0 0 24 24;" xml:space="preserve">
<style type="text/css">
	.st0{fill-rule:evenodd;clip-rule:evenodd;}
</style>
<path class="st0" d="M22,9c0-2.3,0-4,0-4c0,0-1.2,0-3,0v1c0,0.6-0.4,1-1,1c-0.6,0-1-0.4-1-1V5c-3.1,0-6.9,0-10,0v1c0,0.6-0.4,1-1,1
	C5.4,7,5,6.6,5,6V5C3.2,5,2,5,2,5c0,0,0,1.7,0,4L22,9z M22,11H2c0,4.9,0,11,0,11c0,0,20,0,20,0C22,22,22,15.9,22,11L22,11z M19,3h3
	c1.1,0,2,0.9,2,2v17c0,1.1-0.9,2-2,2H2c-1.1,0-2-0.9-2-2V5c0-1.1,0.9-2,2-2h3V1c0-0.6,0.4-1,1-1c0.6,0,1,0.4,1,1v2h10V1
	c0-0.6,0.4-1,1-1c0.6,0,1,0.4,1,1L19,3z"/>
</svg>
