<?xml version="1.0" encoding="utf-8"?>
<!-- Generator: Adobe Illustrator 23.1.1, SVG Export Plug-In . SVG Version: 6.00 Build 0)  -->
<svg version="1.1" id="Capa_1" xmlns="http://www.w3.org/2000/svg" xmlns:xlink="http://www.w3.org/1999/xlink" x="0px" y="0px"
	 viewBox="0 0 25.7 25.2" style="enable-background:new 0 0 25.7 25.2;" xml:space="preserve">
<style type="text/css">
	.st0{fill:#FFFFFF;}
</style>
<path class="st0" d="M19.1,7h-1.9l0-1.2c0-0.3-0.3-0.6-0.6-0.6c-0.3,0-0.6,0.3-0.6,0.6V7H9.7V5.7c0-0.3-0.3-0.6-0.6-0.6
	c-0.3,0-0.6,0.3-0.6,0.6V7H6.6C5.9,7,5.4,7.5,5.4,8.2v10.6c0,0.7,0.6,1.3,1.3,1.3h12.5c0.7,0,1.3-0.6,1.3-1.3V8.2
	C20.4,7.5,19.8,7,19.1,7z M19.1,12c0,3.1,0,6.9,0,6.9l-12.5,0c0,0,0-3.8,0-6.9H19.1L19.1,12L19.1,12L19.1,12z M19.1,10.7l-12.5,0
	c0-1.4,0-2.5,0-2.5l1.9,0v0.6c0,0.3,0.3,0.6,0.6,0.6c0.3,0,0.6-0.3,0.6-0.6V8.2l6.2,0v0.6c0,0.3,0.3,0.6,0.6,0.6
	c0.3,0,0.6-0.3,0.6-0.6V8.2l1.9,0C19.1,8.2,19.1,9.3,19.1,10.7z"/>
</svg>
