<?xml version="1.0" encoding="utf-8"?>
<!-- Generator: Adobe Illustrator 23.1.1, SVG Export Plug-In . SVG Version: 6.00 Build 0)  -->
<svg version="1.1" id="Capa_1" xmlns="http://www.w3.org/2000/svg" xmlns:xlink="http://www.w3.org/1999/xlink" x="0px" y="0px"
	 viewBox="0 0 15.8 15.8" style="enable-background:new 0 0 15.8 15.8;" xml:space="preserve">
<style type="text/css">
	.st0{fill:#888B8E;}
</style>
<g>
	<path class="st0" d="M14.1,2.3h-1.9l0-1.2c0-0.3-0.3-0.6-0.6-0.6C11.3,0.4,11,0.7,11,1v1.2H4.8V1c0-0.3-0.3-0.6-0.6-0.6
		C3.8,0.4,3.5,0.7,3.5,1v1.2H1.6c-0.7,0-1.3,0.6-1.3,1.3v10.6c0,0.7,0.6,1.3,1.3,1.3h12.5c0.7,0,1.3-0.6,1.3-1.3V3.5
		C15.4,2.8,14.8,2.3,14.1,2.3z M14.1,6L1.6,6c0-1.4,0-2.5,0-2.5l1.9,0v0.6c0,0.3,0.3,0.6,0.6,0.6c0.3,0,0.6-0.3,0.6-0.6V3.5l6.2,0
		v0.6c0,0.3,0.3,0.6,0.6,0.6c0.3,0,0.6-0.3,0.6-0.6V3.5l1.9,0C14.1,3.5,14.1,4.6,14.1,6z"/>
</g>
</svg>
