<?xml version="1.0" encoding="utf-8"?>
<!-- Generator: Adobe Illustrator 23.1.1, SVG Export Plug-In . SVG Version: 6.00 Build 0)  -->
<svg version="1.1" id="Capa_1" xmlns="http://www.w3.org/2000/svg" xmlns:xlink="http://www.w3.org/1999/xlink" x="0px" y="0px"
	 viewBox="0 0 15.8 15.8" style="enable-background:new 0 0 15.8 15.8;" xml:space="preserve">
<style type="text/css">
	.st0{fill:#888B8E;}
</style>
<g>
	<path class="st0" d="M0.4,10.7c0,0.5,0.4,0.9,1,0.9h5.2h0.6h1.3h0.6h5.4c0.5,0,0.9-0.4,0.9-0.9V9.8h-15V10.7z"/>
	<path class="st0" d="M14.5,0.4H1.3c-0.5,0-0.9,0.4-0.9,0.9v7.8h15V1.3C15.4,0.8,15,0.4,14.5,0.4z"/>
	<path class="st0" d="M9.2,12.4C9.1,12.4,9.1,12.4,9.2,12.4l0-0.1H8.5H7.3H6.6v0.1h0c-1.2,0.2-1.9,0.8-1.9,1.4c0,0.5,0.4,0.9,1,1.2
		c0.6,0.3,1.3,0.4,2.1,0.4c1.8,0,3.1-0.7,3.1-1.5v0c0,0,0,0,0,0c0,0,0,0,0,0v0C11,13.2,10.3,12.6,9.2,12.4z"/>
</g>
</svg>
