<?xml version="1.0" encoding="utf-8"?>
<!-- Generator: Adobe Illustrator 24.1.0, SVG Export Plug-In . SVG Version: 6.00 Build 0)  -->
<svg version="1.1" id="Capa_1" xmlns="http://www.w3.org/2000/svg" xmlns:xlink="http://www.w3.org/1999/xlink" x="0px" y="0px"
	 viewBox="0 0 48.6 40.7" style="enable-background:new 0 0 48.6 40.7;" xml:space="preserve">
<style type="text/css">
	.st0{fill:#229FDA;}
</style>
<path class="st0" d="M38.9,9.4L24.3,24L9.7,9.5L38.9,9.4z M7.1,6.5c-1.2,0-2.3,1-2.3,2.3V32c0,1.2,1,2.3,2.3,2.3h34.3
	c1.2,0,2.3-1,2.3-2.3V8.7c0-1.2-1-2.3-2.2-2.3L7.1,6.5z M40.7,31.3H7.9V11.9l14.8,14.8c0.4,0.4,1,0.7,1.6,0.7s1.2-0.2,1.6-0.7
	l14.8-14.8V31.3z"/>
</svg>
