<?xml version="1.0" encoding="utf-8"?>
<!-- Generator: Adobe Illustrator 23.1.1, SVG Export Plug-In . SVG Version: 6.00 Build 0)  -->
<svg version="1.1" id="Capa_1" xmlns="http://www.w3.org/2000/svg" xmlns:xlink="http://www.w3.org/1999/xlink" x="0px" y="0px"
	 viewBox="0 0 48.6 40.7" style="enable-background:new 0 0 48.6 40.7;" xml:space="preserve">
<style type="text/css">
	.st0{fill:#229FDA;}
</style>
<path class="st0" d="M27.8,15.9h-8.5c-0.5,0-0.8,0.4-0.8,0.8c0,0.5,0.4,0.8,0.8,0.8h8.5c0.5,0,0.8-0.4,0.8-0.8
	C28.6,16.3,28.2,15.9,27.8,15.9z M27.8,19.9h-8.5c-0.5,0-0.8,0.4-0.8,0.8c0,0.5,0.4,0.8,0.8,0.8h8.5c0.5,0,0.8-0.4,0.8-0.8
	C28.6,20.3,28.2,19.9,27.8,19.9z M27.8,24.4h-8.5c-0.5,0-0.8,0.4-0.8,0.8c0,0.5,0.4,0.8,0.8,0.8h8.5c0.5,0,0.8-0.4,0.8-0.8
	C28.6,24.8,28.2,24.4,27.8,24.4z M15.7,17.6c0.2,0,0.4-0.1,0.6-0.2l2.9-2.9c0.3-0.3,0.3-0.8,0-1.2c-0.3-0.3-0.8-0.3-1.2,0l-2.3,2.3
	L15.1,15c-0.3-0.3-0.8-0.3-1.2,0c-0.3,0.3-0.3,0.8,0,1.2l1.2,1.2C15.3,17.5,15.5,17.6,15.7,17.6z M16,19.7c-0.6,0-1.1,0.5-1.1,1.1
	s0.5,1.1,1.1,1.1s1.1-0.5,1.1-1.1S16.6,19.7,16,19.7z M16,24.2c-0.6,0-1.1,0.5-1.1,1.1s0.5,1.1,1.1,1.1s1.1-0.5,1.1-1.1
	S16.6,24.2,16,24.2z"/>
</svg>
