<?xml version="1.0" encoding="utf-8"?>
<!-- Generator: Adobe Illustrator 23.0.6, SVG Export Plug-In . SVG Version: 6.00 Build 0)  -->
<svg version="1.1" id="Capa_1" xmlns="http://www.w3.org/2000/svg" xmlns:xlink="http://www.w3.org/1999/xlink" x="0px" y="0px"
	 viewBox="0 0 15.3 15.3" style="enable-background:new 0 0 15.3 15.3;" xml:space="preserve">
<style type="text/css">
	.st0{fill:#616A73;}
</style>
<g>
	<g>
		<polygon class="st0" points="0.8,7.7 3.2,5.1 3.2,7.1 8.9,7.1 8.9,8.3 3.7,8.4 3.2,8.4 3.2,10.2 		"/>
		<path class="st0" d="M2.7,6.4v0.3v1h1h4.8v0.3H3.7h-1v1V9L1.4,7.7L2.7,6.4 M3.3,4.3c-0.1,0-0.2,0-0.2,0.1l-2.8,3
			c-0.1,0.1-0.1,0.3,0,0.4l2.8,3C3.2,11,3.3,11,3.3,11c0.2,0,0.3-0.1,0.3-0.3V8.9h5.2c0.3,0,0.6-0.3,0.6-0.6V7.2
			c0-0.3-0.3-0.6-0.6-0.6H3.7v-2C3.7,4.5,3.5,4.3,3.3,4.3L3.3,4.3z"/>
	</g>
	<g>
		<path class="st0" d="M5.7,14.7c-0.6,0-1-0.5-1-1v-2l0.4,0v1.4c0,0.6,0.5,1,1.1,1h7.1c0.6,0,1.1-0.5,1.1-1V2.2c0-0.6-0.5-1-1.1-1
			H6.2c-0.6,0-1.1,0.5-1.1,1v1.2H4.7l0-1.7c0-0.6,0.5-1,1-1h7.9c0.6,0,1,0.5,1,1v12c0,0.6-0.5,1-1,1H5.7z"/>
		<path class="st0" d="M13.7,0.1H5.7c-0.8,0-1.5,0.7-1.5,1.5v1.8c0,0.2,0.2,0.5,0.4,0.5c0.1,0,0.5,0,0.6,0c0.2,0,0.4-0.2,0.4-0.4
			V2.2c0-0.3,0.3-0.5,0.6-0.5h7.1c0.3,0,0.6,0.2,0.6,0.5v10.9c0,0.3-0.3,0.5-0.6,0.5H6.2c-0.3,0-0.6-0.2-0.6-0.5v-1.5
			c0-0.2-0.2-0.4-0.4-0.4c-0.1,0-0.5,0-0.6,0c-0.2,0-0.4,0.2-0.4,0.5v2c0,0.8,0.7,1.5,1.5,1.5h7.9c0.8,0,1.5-0.7,1.5-1.5v-12
			C15.2,0.8,14.5,0.1,13.7,0.1L13.7,0.1z"/>
	</g>
</g>
</svg>
