<?xml version="1.0" encoding="utf-8"?>
<!-- Generator: Adobe Illustrator 23.0.6, SVG Export Plug-In . SVG Version: 6.00 Build 0)  -->
<svg version="1.1" id="Capa_1" xmlns="http://www.w3.org/2000/svg" xmlns:xlink="http://www.w3.org/1999/xlink" x="0px" y="0px"
	 viewBox="0 0 43.7 46.6" style="enable-background:new 0 0 43.7 46.6;" xml:space="preserve">
<style type="text/css">
	.st0{fill:#FFFFFF;}
	.st1{fill:#1D2A36;}
</style>
<circle class="st0" cx="21.7" cy="23.7" r="19"/>
<g>
	<g>
		<path class="st1" d="M16.3,27c-0.7,0.7-1.1,1.6-1.2,2.6c0,0.4,0.3,0.7,0.7,0.7c0.9-0.1,1.9-0.5,2.6-1.2C19.1,28.4,17,26.3,16.3,27
			z"/>
	</g>
	<g>
		<path class="st1" d="M27.2,16.3c-2.3,0.2-4.5,1.1-6.3,2.9c-1.8,1.8-2.8,4.1-3,6.4c-0.1,1,0.7,1.8,1.7,1.8c2.3-0.2,4.6-1.1,6.4-2.9
			c1.8-1.7,2.8-4,3-6.3C29.2,17.1,28.3,16.2,27.2,16.3z M24.5,21.7c-0.6,0-1-0.5-1-1c0-0.6,0.5-1,1-1c0.6,0,1,0.5,1,1
			C25.5,21.3,25.1,21.7,24.5,21.7z"/>
	</g>
	<g>
		<path class="st1" d="M18.9,23.5L15,23.4c-0.5,0-0.7-0.6-0.4-1l1.2-1.2c0.9-0.8,2-1.3,3.2-1.3h1.8"/>
		<path class="st1" d="M22.3,26.5v3.9c0,0.5,0.6,0.8,1,0.4l1.2-1.2c0.9-0.8,1.3-2,1.4-3.2v-1.8"/>
	</g>
</g>
</svg>
