<?xml version="1.0" encoding="utf-8"?>
<!-- Generator: Adobe Illustrator 23.0.1, SVG Export Plug-In . SVG Version: 6.00 Build 0)  -->
<svg version="1.1" id="Capa_1" xmlns="http://www.w3.org/2000/svg" xmlns:xlink="http://www.w3.org/1999/xlink" x="0px" y="0px"
	 viewBox="0 0 15 15" style="enable-background:new 0 0 15 15;" xml:space="preserve">
<style type="text/css">
	.st0{fill:#616A73;}
</style>
<g>
	<path class="st0" d="M12.1,3.1L12.1,3.1v-1c0-0.5-0.2-0.7-0.6-0.7c-1.2,0-0.9,2.6-5.2,2.7v5.6c4.1,0.2,3.8,3.2,5.2,3.2
		c0.4,0,0.6-0.4,0.6-0.9v-0.3l0,0V3.1z"/>
	<path class="st0" d="M2.8,4C1.6,4,0.2,4.8,0.2,6.9s1.5,2.7,2.3,2.7C2.9,9.6,3,9.8,3,10.1v1.5c0,0.7,0.4,1.3,1.1,1.3
		s1.2-0.6,1.2-1.3v-1.5l0,0V4C4.5,4,3.3,4,2.8,4z"/>
	<path class="st0" d="M13.3,5.3c-0.1,0-0.1,0-0.2,0v3c0.1,0,0.1,0,0.2,0c0.6,0,1.4-0.3,1.4-1.5C14.8,5.6,13.9,5.3,13.3,5.3z"/>
</g>
</svg>
