<?xml version="1.0" encoding="utf-8"?>
<!-- Generator: Adobe Illustrator 23.0.1, SVG Export Plug-In . SVG Version: 6.00 Build 0)  -->
<svg version="1.1" id="Capa_1" xmlns="http://www.w3.org/2000/svg" xmlns:xlink="http://www.w3.org/1999/xlink" x="0px" y="0px"
	 viewBox="0 0 15 15" style="enable-background:new 0 0 15 15;" xml:space="preserve">
<style type="text/css">
	.st0{fill:#616A73;}
</style>
<g>
	<path class="st0" d="M13.9,0H1.1C0.5,0,0,0.5,0,1.1v12.8C0,14.5,0.5,15,1.1,15h12.8c0.6,0,1.1-0.5,1.1-1.1V1.1
		C15,0.5,14.5,0,13.9,0z M10.5,11.2h-6c-0.4,0-0.7-0.3-0.7-0.7s0.3-0.7,0.7-0.7h6c0.4,0,0.7,0.3,0.7,0.7S10.9,11.2,10.5,11.2z
		 M10.5,8.3h-6C4.1,8.3,3.8,8,3.8,7.6s0.3-0.7,0.7-0.7h6c0.4,0,0.7,0.3,0.7,0.7S10.9,8.3,10.5,8.3z M10.5,5.4h-6
		C4.1,5.4,3.8,5,3.8,4.7C3.8,4.3,4.1,4,4.5,4h6c0.4,0,0.7,0.3,0.7,0.7C11.2,5,10.9,5.4,10.5,5.4z"/>
</g>
</svg>
