<?xml version="1.0" encoding="utf-8"?>
<!-- Generator: Adobe Illustrator 23.0.1, SVG Export Plug-In . SVG Version: 6.00 Build 0)  -->
<svg version="1.1" id="Capa_1" xmlns="http://www.w3.org/2000/svg" xmlns:xlink="http://www.w3.org/1999/xlink" x="0px" y="0px"
	 viewBox="0 0 15 15" style="enable-background:new 0 0 15 15;" xml:space="preserve">
<style type="text/css">
	.st0{fill:#616A73;}
</style>
<g>
	<path class="st0" d="M8.7,14.8H8.6c-0.4-0.1-0.7-0.4-0.8-0.8L5.9,4.5L4.2,8.2C4,8.6,3.7,8.8,3.3,8.8H1.4c-0.5,0-1-0.4-1-1
		s0.4-1,1-1h1.3l2.7-6.1c0.2-0.4,0.6-0.6,1-0.6s0.8,0.4,0.8,0.8l1.9,9.7l1.8-3.7c0.2-0.3,0.5-0.5,0.9-0.5H14c0.5,0,1,0.4,1,1
		s-0.4,1-1,1h-1.7l-2.8,5.7C9.4,14.5,9,14.8,8.7,14.8z"/>
</g>
</svg>
