<?xml version="1.0" encoding="utf-8"?>
<!-- Generator: Adobe Illustrator 23.0.1, SVG Export Plug-In . SVG Version: 6.00 Build 0)  -->
<svg version="1.1" id="Capa_1" xmlns="http://www.w3.org/2000/svg" xmlns:xlink="http://www.w3.org/1999/xlink" x="0px" y="0px"
	 viewBox="0 0 15 15" style="enable-background:new 0 0 15 15;" xml:space="preserve">
<style type="text/css">
	.st0{fill:#616A73;}
</style>
<path class="st0" d="M12.4,7.9h-1V3.6c0.6-0.3,1-0.8,1-1.5c0-0.9-0.8-1.7-1.7-1.7C9.8,0.4,9,1.2,9,2.1c0,0.7,0.4,1.2,1,1.5v4.3H2.3
	c-1.1,0-2,0.9-2,2v2.6c0,1.1,0.9,2,2,2h10.1c1.1,0,2-0.9,2-2V9.9C14.4,8.8,13.5,7.9,12.4,7.9z M10.7,1.6c0.3,0,0.5,0.2,0.5,0.5
	c0,0.6-1.1,0.6-1.1,0C10.1,1.8,10.4,1.6,10.7,1.6z M11.4,12.2H3.3v-1.9h8.1C11.4,10.3,11.4,12.2,11.4,12.2z"/>
</svg>
