<?xml version="1.0" encoding="utf-8"?>
<!-- Generator: Adobe Illustrator 24.1.0, SVG Export Plug-In . SVG Version: 6.00 Build 0)  -->
<svg version="1.1" id="Capa_1" xmlns="http://www.w3.org/2000/svg" xmlns:xlink="http://www.w3.org/1999/xlink" x="0px" y="0px"
	 viewBox="0 0 48.6 40.7" style="enable-background:new 0 0 48.6 40.7;" xml:space="preserve">
<style type="text/css">
	.st0{fill:#229FDA;}
</style>
<g>
	<path class="st0" d="M32.1,10.9c-1,0-1.8,0.8-1.8,1.8c0,1,0.8,1.8,1.8,1.8c1,0,1.8-0.8,1.8-1.8C33.9,11.7,33.1,10.9,32.1,10.9z
		 M24.4,13.2c-4.1,0-7.4,3.3-7.4,7.4s3.3,7.4,7.4,7.4s7.4-3.3,7.4-7.4S28.4,13.2,24.4,13.2z M24.4,25.3c-2.6,0-4.7-2.1-4.7-4.7
		c0-2.6,2.1-4.7,4.7-4.7c2.6,0,4.7,2.1,4.7,4.7C29.1,23.1,26.9,25.3,24.4,25.3z M39.2,14.4c0-5-4-9-9-9H18.4c-5,0-9,4-9,9v11.8
		c0,5,4,9,9,9h11.8c5,0,9-4,9-9V14.4z M36.4,26.3c0,3.4-2.8,6.2-6.2,6.2H18.4c-3.4,0-6.2-2.8-6.2-6.2V14.4c0-3.4,2.8-6.2,6.2-6.2
		h11.8c3.4,0,6.2,2.8,6.2,6.2V26.3z"/>
</g>
</svg>
