<?xml version="1.0" encoding="utf-8"?>
<!-- Generator: Adobe Illustrator 24.1.0, SVG Export Plug-In . SVG Version: 6.00 Build 0)  -->
<svg version="1.1" id="Capa_1" xmlns="http://www.w3.org/2000/svg" xmlns:xlink="http://www.w3.org/1999/xlink" x="0px" y="0px"
	 viewBox="0 0 48.6 40.7" style="enable-background:new 0 0 48.6 40.7;" xml:space="preserve">
<style type="text/css">
	.st0{fill:#229FDA;}
</style>
<g>
	<path class="st0" d="M40.7,36.5H7.4V3.2h33.3C40.7,3.2,40.7,36.5,40.7,36.5z M9.4,34.5h29.3V5.2H9.4V34.5z"/>
</g>
<g>
	<g>
		<g>
			<g>
				<path class="st0" d="M32.6,21.8V28c0,0.2-0.1,0.3-0.3,0.3h-3.1c-0.2,0-0.3-0.1-0.3-0.3v-5.8c0-1.5-0.5-2.6-1.9-2.6
					c-1,0-1.6,0.7-1.9,1.4c-0.1,0.2-0.1,0.6-0.1,0.9V28c0,0.2-0.1,0.3-0.3,0.3h-3.1c-0.2,0-0.3-0.1-0.3-0.3c0-1.6,0-9.1,0-10.9
					c0-0.2,0.1-0.3,0.3-0.3h3.1c0.2,0,0.3,0.1,0.3,0.3v1.3c0,0,0,0,0,0h0v0c0.5-0.8,1.4-1.9,3.3-1.9C30.8,16.6,32.6,18.2,32.6,21.8
					L32.6,21.8z M15.9,28.3h3.1c0.2,0,0.3-0.1,0.3-0.3V17.1c0-0.2-0.1-0.3-0.3-0.3h-3.1c-0.2,0-0.3,0.1-0.3,0.3V28
					C15.7,28.2,15.8,28.3,15.9,28.3z"/>
			</g>
		</g>
	</g>
	<g>
		<path class="st0" d="M19.4,13.4c0,1.1-0.9,2-2,2s-2-0.9-2-2s0.9-2,2-2S19.4,12.2,19.4,13.4z"/>
	</g>
</g>
</svg>
