<?xml version="1.0" encoding="utf-8"?>
<!-- Generator: Adobe Illustrator 23.1.1, SVG Export Plug-In . SVG Version: 6.00 Build 0)  -->
<svg version="1.1" id="Capa_1" xmlns="http://www.w3.org/2000/svg" xmlns:xlink="http://www.w3.org/1999/xlink" x="0px" y="0px"
	 viewBox="0 0 15.8 15.8" style="enable-background:new 0 0 15.8 15.8;" xml:space="preserve">
<style type="text/css">
	.st0{fill:#888B8E;}
</style>
<g>
	<path class="st0" d="M13.8,0.4L13.8,0.4H1.9h0C1.1,0.4,0.4,1,0.4,1.9v1v0.8v3h6.6V4.9c0-0.3,0.4-0.4,0.6-0.2l2.8,3
		c0.1,0.1,0.1,0.3,0,0.4l-2.8,3c-0.2,0.2-0.6,0.1-0.6-0.2v-2H0.4v5c0,0.8,0.7,1.5,1.5,1.5h0h11.9h0c0.8,0,1.5-0.7,1.5-1.5v-12
		C15.4,1,14.7,0.4,13.8,0.4z"/>
</g>
</svg>
