<?xml version="1.0" encoding="utf-8"?>
<!-- Generator: Adobe Illustrator 23.1.1, SVG Export Plug-In . SVG Version: 6.00 Build 0)  -->
<svg version="1.1" id="Capa_1" xmlns="http://www.w3.org/2000/svg" xmlns:xlink="http://www.w3.org/1999/xlink" x="0px" y="0px"
	 viewBox="0 0 48.6 40.7" style="enable-background:new 0 0 48.6 40.7;" xml:space="preserve">
<style type="text/css">
	.st0{fill:#229FDA;}
</style>
<g>
	<g>
		<path class="st0" d="M10.4,17.9c0.4,0.2,1.1,0.5,1.7,0.5c0.6,0,0.8-0.2,0.8-0.5c0-0.3-0.2-0.5-0.9-0.7c-1.3-0.4-1.8-1.1-1.8-1.9
			c0-1.2,1-2.1,2.6-2.1c0.7,0,1.4,0.2,1.8,0.4l-0.3,1.3c-0.3-0.2-0.8-0.4-1.4-0.4c-0.5,0-0.7,0.2-0.7,0.5c0,0.3,0.2,0.5,1,0.7
			c1.2,0.4,1.7,1,1.7,1.9c0,1.2-0.9,2-2.7,2c-0.8,0-1.6-0.2-2-0.4L10.4,17.9z"/>
		<path class="st0" d="M16,15.4c0-0.8,0-1.5-0.1-2h1.6l0.1,0.8h0c0.3-0.4,0.8-1,1.9-1c0.8,0,1.5,0.4,1.7,1.1h0
			c0.2-0.3,0.5-0.6,0.8-0.8c0.3-0.2,0.7-0.3,1.2-0.3c1.2,0,2.1,0.8,2.1,2.7v3.7h-1.9v-3.4c0-0.9-0.3-1.4-0.9-1.4
			c-0.4,0-0.8,0.3-0.9,0.7c-0.1,0.1-0.1,0.3-0.1,0.5v3.7h-1.9v-3.5c0-0.8-0.3-1.3-0.9-1.3c-0.5,0-0.8,0.4-0.9,0.7
			c-0.1,0.2-0.1,0.3-0.1,0.5v3.7H16V15.4z"/>
		<path class="st0" d="M27,17.9c0.4,0.2,1.1,0.5,1.7,0.5c0.6,0,0.8-0.2,0.8-0.5c0-0.3-0.2-0.5-0.9-0.7c-1.3-0.4-1.8-1.1-1.8-1.9
			c0-1.2,1-2.1,2.6-2.1c0.7,0,1.4,0.2,1.8,0.4l-0.3,1.3c-0.3-0.2-0.8-0.4-1.4-0.4c-0.5,0-0.7,0.2-0.7,0.5c0,0.3,0.2,0.5,1,0.7
			c1.2,0.4,1.7,1,1.7,1.9c0,1.2-0.9,2-2.7,2c-0.8,0-1.6-0.2-2-0.4L27,17.9z"/>
	</g>
	<g>
		<path class="st0" d="M30,36.7l-10.1-8.3H8c-1.8,0-3.3-1.5-3.3-3.4V7.8c0-1.9,1.5-3.4,3.3-3.4h25.6c1.8,0,3.3,1.5,3.3,3.4V25
			c0,1.9-1.5,3.4-3.3,3.4H30L30,36.7L30,36.7z M8,6.4C7.3,6.4,6.7,7,6.7,7.8V25c0,0.8,0.6,1.4,1.3,1.4h12.6l7.4,6v-6h5.7
			c0.7,0,1.3-0.6,1.3-1.4V7.8c0-0.8-0.6-1.4-1.3-1.4H8z"/>
	</g>
</g>
</svg>
