<?xml version="1.0" encoding="utf-8"?>
<!-- Generator: Adobe Illustrator 23.1.1, SVG Export Plug-In . SVG Version: 6.00 Build 0)  -->
<svg version="1.1" id="Capa_1" xmlns="http://www.w3.org/2000/svg" xmlns:xlink="http://www.w3.org/1999/xlink" x="0px" y="0px"
	 viewBox="0 0 48.6 40.7" style="enable-background:new 0 0 48.6 40.7;" xml:space="preserve">
<style type="text/css">
	.st0{fill:none;stroke:#229FDA;stroke-width:2;stroke-miterlimit:10;}
	.st1{fill-rule:evenodd;clip-rule:evenodd;fill:#229FDA;}
</style>
<g>
	
		<image style="overflow:visible;opacity:1.000000e-02;" width="205" height="205" xlink:href="1716316340B8B141.png"  transform="matrix(0.24 0 0 0.24 -0.48 -4.32)">
	</image>
	<g>
		<path class="st0" d="M7.1,36.3l2.4-8.9c-1.5-2.6-2.3-5.5-2.3-8.6c0-9.5,7.7-17.1,17.1-17.1c4.6,0,8.9,1.8,12.1,5
			c3.2,3.2,5,7.5,5,12.1c0,9.5-7.7,17.1-17.1,17.1c0,0,0,0,0,0h0c-2.9,0-5.7-0.7-8.2-2.1L7.1,36.3z"/>
	</g>
</g>
<g id="shape_1_1_">
	
		<image style="overflow:visible;opacity:6.000000e-02;" width="148" height="144" xlink:href="1716316340B8B143.png"  transform="matrix(0.24 0 0 0.24 6.6 2.76)">
	</image>
	<g>
		<g>
			<path class="st1" d="M20.1,11.7c-0.3-0.7-0.7-0.7-1-0.7c-0.2,0-0.5,0-0.8,0c-0.3,0-0.7,0.1-1.1,0.5c-0.4,0.4-1.5,1.5-1.5,3.6
				c0,2.1,1.5,4.1,1.7,4.4c0.2,0.3,3,4.7,7.3,6.5c3.6,1.4,4.4,1.1,5.1,1.1s2.5-1,2.9-2c0.4-1,0.4-1.9,0.2-2
				c-0.1-0.2-0.4-0.3-0.8-0.5c-0.4-0.2-2.5-1.3-2.9-1.4s-0.7-0.2-1,0.2c-0.3,0.4-1.1,1.4-1.4,1.7c-0.2,0.3-0.5,0.3-0.9,0.1
				c-0.4-0.2-1.8-0.7-3.4-2.1c-1.3-1.1-2.1-2.5-2.4-3c-0.2-0.4,0-0.7,0.2-0.9c0.2-0.2,0.4-0.5,0.6-0.8c0.2-0.3,0.3-0.4,0.4-0.7
				c0.1-0.3,0.1-0.5,0-0.8C21.3,14.7,20.5,12.6,20.1,11.7z"/>
		</g>
	</g>
</g>
</svg>
